<svg width="834" height="238" viewBox="0 0 834 238" fill="none" xmlns="http://www.w3.org/2000/svg">
<path d="M89.0942 0.856177C134.743 -1.84502 174.887 25.3405 187.156 69.6065C197.175 105.747 183.994 138.709 161.386 166.448C146.074 185.232 129.2 203.668 113.096 221.757C109.868 225.381 105.529 231.597 101.987 234.515C95.4513 239.912 90.3743 236.793 85.433 231.532C74.2594 219.648 63.5631 205.984 52.9047 193.547C32.5373 169.784 9.68562 147.681 2.59091 115.858C-10.313 57.9555 30.2049 4.34386 89.0942 0.856177ZM153.787 148.267C154.319 148.299 154.525 147.73 154.785 147.366C197.12 89.0572 160.28 11.0752 86.2357 18.6092C33.1448 24.017 4.01745 77.39 24.4174 126.033C31.702 143.401 45.208 157.227 57.244 171.313C68.6454 184.657 80.1336 197.973 91.9581 210.909C92.9399 211.983 94.2851 215.314 96.0262 213.909C97.469 212.748 99.3078 210.698 100.637 209.293C108.892 200.566 117.088 190.748 125.029 181.614C132.726 172.762 142.841 163.508 136.126 150.463C131.559 141.589 123.928 139.816 114.967 137.993C99.1179 134.761 82.569 132.71 66.8501 129.157C49.6665 125.268 37.3376 114.165 38.7696 95.36C39.6754 83.4758 47.5295 77.6992 55.8717 70.6967C67.0833 61.2805 78.8481 52.4609 90.1194 43.1098C93.5691 41.3199 97.2087 41.5911 100.615 43.3268C114.452 55.3628 130.61 65.674 144.301 77.748C147.539 80.6065 149.361 82.6677 148.922 87.2673C148.347 93.3423 141.344 96.6076 136.246 93.3911L94.9305 60.3964L62.3806 86.9635C53.1163 94.8339 53.3875 107.841 66.3076 111.258C85.791 116.411 107.807 117.74 127.339 122.909C139.571 126.147 150.001 136.214 153.787 148.261V148.267Z" fill="#08A19D"/>
<path d="M266.592 163.012C242.096 163.012 228.207 152.153 227.575 133.087H245.505C246.768 143.946 252.955 148.239 265.834 148.239C275.178 148.239 283.386 144.956 283.386 136.623C283.386 127.784 274.799 126.016 261.036 122.859C244.874 119.198 230.101 114.905 230.101 96.0907C230.101 78.2869 244.622 69.0694 264.698 69.0694C285.027 69.0694 298.159 79.0445 299.548 97.2271H281.997C280.987 88.1358 273.916 83.5902 264.572 83.5902C254.723 83.5902 248.283 87.757 248.283 94.1966C248.283 101.52 254.597 103.667 267.981 106.571C286.542 110.611 301.694 115.031 301.694 134.476C301.694 152.785 286.921 163.012 266.592 163.012ZM306.836 107.581V96.2169H315.801V76.0141H332.594V96.2169H343.706V107.581H332.594V141.926C332.594 146.724 335.246 148.365 339.034 148.365C341.181 148.365 344.085 148.239 344.085 148.239V160.866C344.085 160.866 340.171 161.118 333.352 161.118C325.018 161.118 315.801 157.835 315.801 145.588V107.581H306.836ZM393.95 160.992C392.94 159.73 392.308 156.699 391.929 153.795H391.677C388.394 158.719 383.722 162.507 372.61 162.507C359.352 162.507 350.009 155.563 350.009 142.683C350.009 128.415 361.625 123.87 376.02 121.849C386.752 120.334 391.677 119.45 391.677 114.526C391.677 109.854 388.015 106.823 380.818 106.823C372.737 106.823 368.822 109.728 368.317 115.915H353.039C353.544 104.551 362.004 94.5755 380.944 94.5755C400.389 94.5755 408.218 103.288 408.218 118.44V151.396C408.218 156.32 408.976 159.224 410.491 160.361V160.992H393.95ZM376.777 150.512C386.626 150.512 392.056 144.451 392.056 138.138V128.415C389.025 130.183 384.353 131.193 380.06 132.203C371.095 134.223 366.676 136.244 366.676 142.305C366.676 148.365 370.716 150.512 376.777 150.512ZM419.908 182.205V168.695H425.968C432.787 168.695 435.565 165.159 435.565 159.856C435.565 156.32 434.302 152.153 430.64 142.305L413.215 96.2169H431.272L440.868 125.385C442.888 131.319 445.035 139.527 445.035 139.527H445.287C445.287 139.527 447.055 131.319 449.075 125.385L458.167 96.2169H475.465L452.863 162.634C447.939 177.028 443.141 182.205 430.009 182.205H419.908Z" fill="black"/>
<path d="M482.671 160.992V70.7109H547.32V86.2418H500.98V107.96H540.249V123.617H500.98V160.992H482.671ZM556.254 160.992V96.2169H573.426V160.992H556.254ZM556.254 86.1155V70.7109H573.426V86.1155H556.254ZM601.285 96.2169V105.056H601.664C606.083 98.1109 612.018 94.4492 620.856 94.4492C634.241 94.4492 643.206 104.551 643.206 118.693V160.992H626.033V121.218C626.033 114.273 621.993 109.349 614.796 109.349C607.22 109.349 601.664 115.41 601.664 124.248V160.992H584.491V96.2169H601.285ZM678.034 162.886C661.745 162.886 650.634 149.628 650.634 128.668C650.634 108.465 662.124 94.4492 678.286 94.4492C687.378 94.4492 693.06 98.616 696.595 104.046H696.974V70.7109H714.146V160.992H697.605V152.532H697.353C693.565 158.719 687.125 162.886 678.034 162.886ZM681.822 148.492C692.05 148.492 697.353 140.916 697.353 129.046C697.353 116.672 693.312 108.339 682.327 108.339C672.857 108.339 668.059 116.672 668.059 128.668C668.059 141.168 672.983 148.492 681.822 148.492ZM755.74 162.886C734.274 162.886 722.153 147.86 722.153 128.541C722.153 109.349 735.158 94.4492 754.098 94.4492C774.932 94.4492 786.044 110.359 786.044 133.466H739.072C740.335 143.441 745.891 149.628 755.613 149.628C762.306 149.628 766.22 146.598 768.114 141.673H785.034C782.635 153.164 772.407 162.886 755.74 162.886ZM754.351 107.707C745.26 107.707 740.84 113.137 739.325 121.597H768.114C767.609 113.389 762.179 107.707 754.351 107.707ZM810.533 96.2169V106.571H810.912C814.826 99.2474 819.245 95.4593 826.821 95.4593C828.716 95.4593 829.852 95.5856 830.862 95.9644V110.99H830.483C819.245 109.854 811.164 115.788 811.164 129.425V160.992H793.992V96.2169H810.533Z" fill="#08A19D"/>
</svg>
