<svg width="1080" height="1080" viewBox="0 0 1080 1080" fill="none" xmlns="http://www.w3.org/2000/svg">
<rect width="1080" height="1080" rx="235" fill="#08A19D"/>
<path d="M519.057 145.787C671.373 136.774 805.318 227.483 846.256 375.183C879.684 495.772 835.705 605.755 760.271 698.31C709.18 760.984 652.876 822.5 599.142 882.858C588.374 894.948 573.895 915.689 562.077 925.425C540.268 943.433 523.328 933.027 506.841 915.471C469.558 875.818 433.869 830.228 398.305 788.729C330.346 709.44 254.098 635.69 230.426 529.507C187.37 336.308 322.564 157.424 519.057 145.787ZM734.916 637.644C736.689 637.753 737.377 635.853 738.246 634.64C879.503 440.083 756.579 179.884 509.519 205.023C332.373 223.067 235.185 401.154 303.253 563.459C327.559 621.41 372.624 667.543 412.784 714.544C450.827 759.066 489.159 803.497 528.613 846.662C531.889 850.245 536.377 861.357 542.187 856.67C547.001 852.797 553.136 845.956 557.57 841.268C585.116 812.148 612.463 779.39 638.959 748.913C664.64 719.376 698.393 688.501 675.988 644.974C660.749 615.365 635.285 609.447 605.386 603.366C552.503 592.58 497.285 585.738 444.836 573.884C387.501 560.908 346.363 523.86 351.141 461.114C354.164 421.46 380.37 402.185 408.205 378.821C445.614 347.402 484.87 317.974 522.478 286.773C533.988 280.8 546.132 281.705 557.498 287.497C603.667 327.657 657.582 362.062 703.262 402.348C714.066 411.886 720.147 418.763 718.681 434.111C716.763 454.381 693.398 465.276 676.386 454.544L538.531 344.452L429.923 433.097C399.011 459.358 399.916 502.758 443.026 514.16C508.035 531.353 581.496 535.787 646.668 553.035C687.48 563.839 722.283 597.43 734.916 637.626V637.644Z" fill="white"/>
</svg>
